PathFileType	4	(X/Y/Z)	./resultDataOpenSim/trcMotMarkerGrf/sub10/qtm-15-06.trc
DataRate	CameraRate	NumFrames	NumMarkers	Units	OrigDataRate	OrigDataStartFrame	OrigNumFrames
250.000000	250.000000	13	24	m	250.000000	1	518
Frame#	Time	L.Toe.Tip			R.Toe.Tip			L.Ankle.Lat			R.Ankle.Lat			L.Ankle.Med			R.Ankle.Med			L.Heel			R.Heel			L.Knee.Lat			R.Knee.Lat			L.Knee.Med			R.Knee.Med			L.Thigh.Upper			R.Thigh.Upper			L.ASIS			R.ASIS			V.Sacral			L.Acromium			R.Acromium			C7			L.Elbow			R.Elbow			L.Wrist.Lat			R.Wrist.Lat
		X1	Y1	Z1	X2	Y2	Z2	X3	Y3	Z3	X4	Y4	Z4	X5	Y5	Z5	X6	Y6	Z6	X7	Y7	Z7	X8	Y8	Z8	X9	Y9	Z9	X10	Y10	Z10	X11	Y11	Z11	X12	Y12	Z12	X13	Y13	Z13	X14	Y14	Z14	X15	Y15	Z15	X16	Y16	Z16	X17	Y17	Z17	X18	Y18	Z18	X19	Y19	Z19	X20	Y20	Z20	X21	Y21	Z21	X22	Y22	Z22	X23	Y23	Z23	X24	Y24	Z24

1	0	-1.5977507	0.03712097	-0.21022895	-0.92966172	0.12587589	-0.035896478	-1.7250393	0.071033976	-0.24151867	-1.0632234	0.072254497	-0.010341554	-1.7122237	0.095837227	-0.15829243	-1.0513604	0.1118732	-0.089067518	NaN	NaN	NaN	-1.0878784	0.030015735	-0.064057479	-1.5677178	0.42448363	-0.28113803	-1.238801	0.44153208	0.012379954	-1.5696013	0.40548357	-0.15920989	-1.2195935	0.44059854	-0.11625734	-1.4438695	0.80018679	-0.3463261	-1.3960163	0.81959714	0.037926524	-1.367358	0.90373055	-0.28664079	-1.3308439	0.91615975	-0.042043051	-1.547485	0.92276023	-0.13590448	-1.3695939	1.3753008	-0.30837362	-1.4037241	1.365486	0.016050523	-1.4723413	1.4082974	-0.1576546	-1.37847	1.0270884	-0.36994962	NaN	NaN	NaN	-1.1677027	0.90333644	-0.31976892	-1.4439931	0.82751606	0.12961502
2	0.004	-1.5976847	0.037108692	-0.21022748	-0.92084904	0.12644546	-0.034595058	-1.7246314	0.07201636	-0.24138439	-1.0538903	0.072382361	-0.0091038748	-1.7146303	0.095879417	-0.15705531	-1.0421528	0.11216356	-0.087765358	NaN	NaN	NaN	-1.0788116	0.030093718	-0.062751213	-1.5636416	0.42395079	-0.2810795	-1.2310546	0.44122376	0.013249831	-1.56513	0.4047209	-0.15900821	-1.2129329	0.43986442	-0.11554278	-1.439184	0.79935597	-0.34622177	-1.3883642	0.81817413	0.038352451	-1.3619792	0.90255639	-0.28676707	-1.3244315	0.91468954	-0.042155203	-1.5420242	0.92108362	-0.13505157	-1.3643116	1.373997	-0.30787485	-1.3981157	1.3639589	0.016550055	-1.4672285	1.4070156	-0.15699859	-1.3721546	1.025821	-0.36921108	NaN	NaN	NaN	-1.1603721	0.90369221	-0.31879156	-1.4407752	0.82589609	0.13011058
3	0.008	-1.5976143	0.037097754	-0.21023133	-0.91233895	0.12681574	-0.033281508	-1.7241885	0.073093178	-0.24125589	-1.0448981	0.072422178	-0.0078345264	-1.7164559	0.09607284	-0.15600023	-1.0332524	0.11230672	-0.086469741	NaN	NaN	NaN	-1.0700996	0.030077587	-0.061377003	-1.5594947	0.42342183	-0.28100725	-1.2233257	0.4409056	0.014060578	-1.560705	0.40400482	-0.158782	-1.2061503	0.43923702	-0.1147956	-1.4345093	0.79855602	-0.34611272	-1.3806567	0.81682223	0.038820087	-1.3565898	0.90138906	-0.28691771	-1.3179948	0.91323055	-0.042245697	-1.5367687	0.91948881	-0.13443442	-1.3589697	1.3727464	-0.30736155	-1.3925199	1.3624458	0.01708062	-1.462099	1.4057485	-0.1563821	-1.365829	1.0245807	-0.36844209	NaN	NaN	NaN	-1.1530826	0.90405185	-0.31781582	-1.4375773	0.82429808	0.13060919
4	0.012	-1.5975365	0.03709147	-0.21023967	-0.90433173	0.12685382	-0.031974335	-1.7237305	0.074296098	-0.24114964	-1.0364734	0.072311331	-0.0065270455	-1.7169153	0.096623803	-0.1553948	-1.0248558	0.11220367	-0.085178865	NaN	NaN	NaN	-1.0619647	0.029903794	-0.059927699	-1.5552358	0.42290625	-0.2809243	-1.2156518	0.44057205	0.014788535	-1.5563357	0.40332174	-0.15851101	-1.1991639	0.43878177	-0.11402532	-1.4298329	0.79779314	-0.34596872	-1.3729539	0.81555589	0.039330459	-1.3511729	0.90023841	-0.28709747	-1.3115185	0.9117883	-0.042303577	-1.5316455	0.91800894	-0.13399598	-1.3535511	1.3715792	-0.30682179	-1.3869152	1.3609629	0.017651058	-1.4569288	1.4045137	-0.15578629	-1.3594955	1.023388	-0.36762691	NaN	NaN	NaN	-1.1458521	0.9044079	-0.31684539	-1.4343094	0.82273786	0.13112032
5	0.016	-1.5974542	0.037093916	-0.21024788	-0.89693612	0.12651074	-0.030697082	-1.7232674	0.075596115	-0.24108631	-1.0287182	0.072021107	-0.0052033222	-1.7158373	0.097604974	-0.15533224	-1.0170364	0.11182815	-0.083892732	NaN	NaN	NaN	-1.054487	0.029549492	-0.058438682	-1.5508811	0.42241226	-0.28083654	-1.2080553	0.4402348	0.015432431	-1.5519524	0.40264449	-0.15821359	-1.1919709	0.43851183	-0.11327008	-1.4251429	0.79704845	-0.34574018	-1.3653667	0.81436167	0.039859362	-1.3457119	0.8991236	-0.28728683	-1.3050239	0.91037248	-0.04232917	-1.5263638	0.91663334	-0.13343922	-1.3480839	1.3704937	-0.30624987	-1.381291	1.359531	0.018253678	-1.4517043	1.4033262	-0.15515	-1.3531793	1.0222571	-0.36677349	NaN	NaN	NaN	-1.1386985	0.90475619	-0.31588771	-1.4308587	0.82122243	0.13164572
6	0.02	-1.5973744	0.037107196	-0.21025388	-0.89017125	0.12578915	-0.029427715	-1.7227736	0.076966225	-0.24108222	-1.0216165	0.071552979	-0.0038815483	-1.7138318	0.098909271	-0.15565095	-1.0097807	0.11120822	-0.082620168	NaN	NaN	NaN	-1.047653	0.02901833	-0.056950509	-1.5464625	0.42193987	-0.28074124	-1.2004845	0.43993249	0.016002811	-1.5474506	0.40196872	-0.15794207	-1.1846118	0.43841125	-0.1125588	-1.4204155	0.79631204	-0.34538823	-1.3578893	0.81325316	0.040403806	-1.3401742	0.89806808	-0.28744933	-1.2985409	0.90899062	-0.042327613	-1.5206803	0.91534853	-0.13252014	-1.3425876	1.3694697	-0.30564592	-1.3756788	1.3581679	0.018879632	-1.4464234	1.4021888	-0.15444466	-1.3469041	1.0211913	-0.36590555	-1.5050628	1.0320563	0.043658745	-1.131643	0.90509617	-0.31494325	-1.4271999	0.81975253	0.13218113
7	0.024	-1.5972966	0.037128146	-0.21026243	-0.88395179	0.12470363	-0.028090965	-1.7222324	0.078407174	-0.24114691	-1.0150951	0.070926149	-0.0025691085	-1.7115712	0.10038651	-0.15613778	-1.0030614	0.11037987	-0.081382697	NaN	NaN	NaN	-1.0414257	0.028326968	-0.055505786	-1.5419895	0.42148729	-0.28062546	-1.1928859	0.43971	0.016520186	-1.5427907	0.40129003	-0.15773367	-1.177121	0.43845542	-0.11189626	-1.4156127	0.79560835	-0.34490612	-1.3504651	0.81227291	0.040981053	-1.3345158	0.89708559	-0.28754417	-1.2920725	0.90764181	-0.042298245	-1.5145106	0.9141525	-0.13116291	-1.3370653	1.368501	-0.30500915	-1.3701311	1.3568836	0.019528775	-1.4410969	1.4010967	-0.15370106	-1.3406805	1.0201863	-0.3650399	-1.5001198	1.0310583	0.04396093	-1.1247078	0.90542114	-0.31400203	-1.4234033	0.81833806	0.13272774
8	0.028	-1.5972077	0.037150011	-0.21028232	-0.87813812	0.12326401	-0.026612967	-1.7216525	0.079923947	-0.24128474	-1.0091211	0.070156336	-0.0012887549	-1.7094047	0.1019198	-0.15665936	-0.99686162	0.10935896	-0.080209311	NaN	NaN	NaN	-1.0357766	0.027495395	-0.054140958	-1.5374667	0.42105352	-0.28046652	-1.1852869	0.4395816	0.017005968	-1.5380051	0.40059514	-0.1575828	-1.1695042	0.43861768	-0.11126887	-1.4107205	0.79497031	-0.34430838	-1.343145	0.81145142	0.041592817	-1.3287453	0.89616175	-0.28756404	-1.2856146	0.90633355	-0.042227444	-1.5078848	0.91303943	-0.12940975	-1.3315259	1.3676062	-0.30433392	-1.3646474	1.3556832	0.020215746	-1.4357353	1.4000472	-0.15295479	-1.3345034	1.0192419	-0.36417196	-1.4951482	1.0300951	0.044262402	-1.117886	0.90573063	-0.31304582	-1.4195891	0.81699628	0.13328631
9	0.032	-1.5970966	0.037169876	-0.21031733	-0.87264761	0.12148044	-0.024999308	-1.7210347	0.081520693	-0.24149814	-1.0037293	0.069243898	-9.0212471e-05	-1.707433	0.10344625	-0.15716358	-0.99115779	0.10815141	-0.079126388	NaN	NaN	NaN	-1.0306839	0.026540222	-0.052877113	-1.5329095	0.42063726	-0.28025594	-1.1777886	0.43951814	0.017467548	-1.5331457	0.39988261	-0.15745745	-1.1617606	0.4388744	-0.11066148	-1.4057633	0.79440716	-0.34361234	-1.3360579	0.81078724	0.042214248	-1.3230547	0.8952358	-0.28759813	-1.2792009	0.90508799	-0.042101238	-1.5009819	0.91201096	-0.12745457	-1.3259797	1.366802	-0.30361855	-1.3591123	1.3545688	0.020963337	-1.4303395	1.399043	-0.15220639	-1.3283603	1.0183672	-0.36328321	-1.4900911	1.0291937	0.044574659	-1.1111242	0.90603909	-0.3120488	-1.4158607	0.81573629	0.13385057
10	0.036	-1.5969656	0.037190571	-0.21036295	-0.86749437	0.11936916	-0.023339304	-1.7203195	0.083209088	-0.24178599	-0.99893838	0.068184752	0.00097686563	-1.7056697	0.10496015	-0.15763963	-0.98592554	0.10677261	-0.078153386	NaN	NaN	NaN	-1.0261243	0.025471326	-0.051727174	-1.5283135	0.42024729	-0.28001841	-1.1704791	0.43948171	0.0178941	-1.5282596	0.39916828	-0.15732859	-1.153908	0.43920701	-0.11007081	-1.4007556	0.79390137	-0.34283819	-1.329278	0.81026623	0.042819329	-1.317746	0.89422719	-0.2877953	-1.2728593	0.90391893	-0.041922997	-1.4940878	0.91108832	-0.12560068	-1.3204232	1.3660869	-0.30287036	-1.3533535	1.3535393	0.021788026	-1.4249082	1.3980881	-0.15144473	-1.3222462	1.0175668	-0.36236026	-1.4849161	1.0283669	0.044907941	-1.1043791	0.90636007	-0.3109993	-1.4122336	0.81455537	0.13441672
11	0.04	-1.596821	0.037215452	-0.2104131	-0.86273632	0.1169558	-0.021726148	-1.7193767	0.084984694	-0.24213063	-0.99468552	0.06699091	0.0018986587	-1.7040921	0.10649955	-0.15809953	-0.98116132	0.10525088	-0.077300315	NaN	NaN	NaN	-1.0220722	0.024291848	-0.050701935	-1.5236513	0.4199004	-0.2797843	-1.1633571	0.43946509	0.01827966	-1.5233816	0.39846646	-0.1571812	-1.1459765	0.43960552	-0.10950027	-1.3956658	0.7934199	-0.34200356	-1.3227541	0.80988548	0.043417711	-1.3128335	0.89312365	-0.28817338	-1.2665517	0.90283069	-0.041705281	-1.4873799	0.91028766	-0.12404187	-1.3148501	1.3654569	-0.30209917	-1.3473465	1.35259	0.022685182	-1.4194449	1.3971829	-0.15067648	-1.3161677	1.0168355	-0.36141447	-1.4796285	1.0276116	0.045262294	-1.0976909	0.90668891	-0.30992925	-1.4086438	0.81344642	0.13499121
12	0.044	-1.5966584	0.03724669	-0.21046693	-0.85841434	0.11427493	-0.020199792	-1.7180572	0.086804231	-0.24248391	-0.99087339	0.065693149	0.00269378	-1.702619	0.10812983	-0.15858182	-0.97686359	0.10361477	-0.076569779	NaN	NaN	NaN	-1.0185033	0.023013893	-0.049808539	-1.5189106	0.41959666	-0.27955893	-1.1563415	0.43948805	0.018647019	-1.5185053	0.39778993	-0.15701793	-1.1379932	0.44007334	-0.10894785	-1.3904475	0.79293453	-0.34110771	-1.3163414	0.80965007	0.044057214	-1.3079074	0.89200408	-0.28854882	-1.2602064	0.90184624	-0.041449818	-1.4808228	0.90960289	-0.12275581	-1.3092666	1.3649146	-0.30131091	-1.3412928	1.3517186	0.023618803	-1.4139518	1.3963243	-0.14991322	-1.3101348	1.0161716	-0.36047548	-1.4742455	1.0269199	0.045633917	-1.0911423	0.90701306	-0.3088941	-1.4050055	0.81241048	0.13558672
13	0.048	-1.5964505	0.037288595	-0.21053181	-0.85452398	0.1113607	-0.018768755	-1.7163029	0.088620448	-0.24279195	-0.98745247	0.064322727	0.0033842861	-1.701161	0.10990381	-0.15912654	-0.9730023	0.10188472	-0.075960786	NaN	NaN	NaN	-1.0154116	0.021688077	-0.049048874	-1.5140976	0.41932231	-0.27933466	-1.1493443	0.43956766	0.019025938	-1.5135729	0.3971622	-0.15686141	-1.1299794	0.44062037	-0.10840576	-1.3850735	0.79244445	-0.34015365	-1.3098531	0.80956805	0.044796566	-1.3025736	0.89094718	-0.28873635	-1.2537863	0.90101065	-0.041145208	-1.4742894	0.90901946	-0.12162284	-1.3036775	1.364461	-0.30050333	-1.335414	1.3509256	0.024541247	-1.4084222	1.3955099	-0.14914507	-1.3041513	1.0155829	-0.35955369	-1.4687796	1.0262902	0.04602119	-1.0847527	0.90733442	-0.30791389	-1.4012453	0.81146048	0.13621271
